<svg width="341" height="426" viewBox="0 0 341 426" fill="none" xmlns="http://www.w3.org/2000/svg">
<path d="M170.508 403.97C209.474 403.97 241.061 408.877 241.061 414.929C241.061 420.984 209.474 425.888 170.508 425.888C131.541 425.888 99.9517 420.984 99.9517 414.929C99.9517 408.877 131.541 403.97 170.508 403.97Z" fill="#A1AFB2"/>
<path d="M240.526 351.947C240.526 402.702 209.169 411.172 170.498 411.172C131.842 411.172 100.473 402.702 100.473 351.947C100.473 301.189 131.842 260.038 170.498 260.038C209.169 260.038 240.526 301.183 240.526 351.947Z" fill="#232728"/>
<path d="M341 173.56C341 236.781 264.646 268.557 170.499 268.557C76.3513 268.557 0 236.781 0 173.56C0 110.341 76.3513 59.0939 170.499 59.0939C264.646 59.0939 341 110.341 341 173.56Z" fill="#F9C1AC"/>
<path d="M341 173.56C341 236.781 264.646 268.557 170.499 268.557C76.3513 268.557 0 236.781 0 173.56" fill="#F2B09C"/>
<path d="M108.977 153.534C115.368 153.534 120.55 158.715 120.55 165.106C120.55 171.495 115.368 176.675 108.977 176.675C102.587 176.675 97.4082 171.495 97.4082 165.106C97.4082 158.715 102.587 153.534 108.977 153.534Z" fill="#113E49"/>
<path d="M120.55 165.086C120.55 171.485 115.365 176.655 108.977 176.655C102.589 176.655 97.4082 171.485 97.4082 165.086" fill="black"/>
<path d="M131.816 189.21C131.187 189.21 130.559 188.974 130.075 188.496C124.436 182.842 116.927 179.736 108.963 179.736H108.948C101 179.736 93.4928 182.842 87.8804 188.485C86.9331 189.431 85.3876 189.461 84.4465 188.496C83.4811 187.563 83.466 186.018 84.4162 185.062C90.9608 178.487 99.6808 174.864 108.948 174.864H108.963C118.254 174.864 126.965 178.473 133.553 185.046C134.49 185.994 134.49 187.569 133.553 188.496C133.07 188.974 132.441 189.21 131.816 189.21Z" fill="#FFD3C5"/>
<path d="M232.029 153.542C238.414 153.542 243.592 158.718 243.592 165.106C243.592 171.491 238.414 176.67 232.029 176.67C225.64 176.67 220.465 171.491 220.465 165.106C220.465 158.718 225.64 153.542 232.029 153.542Z" fill="#113E49"/>
<path d="M220.462 165.086C220.462 171.485 225.635 176.655 232.02 176.655C238.408 176.655 243.593 171.485 243.593 165.086" fill="black"/>
<path d="M209.2 189.21C209.813 189.21 210.442 188.974 210.927 188.496C216.58 182.842 224.072 179.736 232.035 179.736H232.065C240.002 179.736 247.508 182.842 253.132 188.485C254.083 189.431 255.628 189.461 256.569 188.496C257.532 187.563 257.547 186.018 256.584 185.062C250.055 178.487 241.321 174.864 232.065 174.864H232.035C222.747 174.864 214.048 178.473 207.448 185.046C206.526 185.994 206.526 187.569 207.448 188.496C207.931 188.974 208.559 189.21 209.2 189.21Z" fill="#FFD3C5"/>
<path d="M170.498 190.393C174.559 190.393 177.851 194.746 177.851 200.113C177.851 205.48 174.559 209.829 170.498 209.829C166.44 209.829 163.148 205.48 163.148 200.113C163.148 194.746 166.44 190.393 170.498 190.393Z" fill="#A54A53"/>
<path d="M153.09 388.122C152.647 380.978 145.932 366.163 138.773 366.591L99.809 378.467C92.6813 378.9 87.2547 385.057 87.6944 392.184C88.1461 399.316 94.2888 404.734 101.412 404.285L150.951 410.65C158.095 410.201 153.532 395.28 153.09 388.122Z" fill="#232728"/>
<path d="M187.917 388.122C188.359 380.978 195.068 366.163 202.219 366.591L241.191 378.467C248.319 378.9 253.731 385.057 253.303 392.184C252.847 399.316 246.694 404.734 239.586 404.285L190.035 410.65C182.907 410.201 187.468 395.28 187.917 388.122Z" fill="#232728"/>
<path d="M124.129 300.505C131.942 302.402 136.719 310.225 134.865 318.052L124.407 361.3C122.538 369.098 114.696 373.891 106.867 371.993C99.1047 370.111 94.3126 362.277 96.1799 354.49L106.61 311.213C108.492 303.443 116.312 298.638 124.129 300.505Z" fill="#F2B09C"/>
<path d="M102.176 377.954C95.5513 374.319 60.6894 348.253 64.2955 341.607C67.9304 334.993 108.68 350.377 115.301 353.983C121.924 357.621 124.357 365.903 120.707 372.536C117.082 379.167 108.791 381.577 102.176 377.954Z" fill="#F9C1AC"/>
<path d="M216.871 300.505C209.057 302.402 204.28 310.225 206.134 318.052L216.59 361.3C218.459 369.098 226.301 373.891 234.129 371.993C241.892 370.111 246.684 362.277 244.816 354.49L234.386 311.213C232.507 303.443 224.684 298.638 216.871 300.505Z" fill="#F2B09C"/>
<path d="M238.816 377.954C245.446 374.319 280.311 348.253 276.687 341.607C273.067 334.993 232.306 350.377 225.696 353.983C219.073 357.621 216.641 365.903 220.291 372.536C223.915 379.167 232.206 381.577 238.816 377.954Z" fill="#F9C1AC"/>
<path d="M168.297 394.581C173.771 392.94 195.939 381.421 194.293 375.965C192.637 370.477 167.79 373.127 162.322 374.767C156.861 376.408 153.744 382.191 155.385 387.665C157.047 393.135 162.827 396.237 168.297 394.581Z" fill="#F9C1AC"/>
<path d="M172.703 394.581C167.226 392.94 145.061 381.421 146.707 375.965C148.363 370.477 173.21 373.127 178.678 374.767C184.139 376.408 187.256 382.191 185.615 387.665C183.953 393.135 178.17 396.237 172.703 394.581Z" fill="#F9C1AC"/>
<path d="M192.461 -1.52588e-05H149.24V10.2096H156.046V107.542C156.046 112.985 160.469 117.41 165.917 117.41H176.125C181.57 117.41 185.993 112.985 185.993 107.542V9.86815H192.8V-1.52588e-05H192.461Z" fill="#F2B09C"/>
<path d="M159.109 34.7132V107.2C159.109 110.944 162.171 113.668 165.573 113.668H175.783C179.528 113.668 182.25 110.604 182.25 107.2V34.7132H159.109Z" fill="#F16D6E"/>
<path d="M174.423 8.84762C177.244 8.84762 179.528 11.1334 179.528 13.9524C179.528 16.7715 177.244 19.0587 174.423 19.0587C171.606 19.0587 169.318 16.7715 169.318 13.9524C169.318 11.1334 171.606 8.84762 174.423 8.84762Z" fill="white"/>
<path d="M171.36 44.2409C173.614 44.2409 175.444 46.0704 175.444 48.3244C175.444 50.58 173.614 52.408 171.36 52.408C169.106 52.408 167.277 50.58 167.277 48.3244C167.277 46.0704 169.106 44.2409 171.36 44.2409Z" fill="white"/>
<path d="M172.042 71.8075C174.107 71.8075 175.784 73.4829 175.784 75.5511C175.784 77.6193 174.107 79.2947 172.042 79.2947C169.974 79.2947 168.297 77.6193 168.297 75.5511C168.297 73.4829 169.974 71.8075 172.042 71.8075Z" fill="white"/>
<path d="M174.762 89.1634C176.267 89.1634 177.486 90.3825 177.486 91.8872C177.486 93.3904 176.267 94.6081 174.762 94.6081C173.261 94.6081 172.042 93.3904 172.042 91.8872C172.042 90.3825 173.261 89.1634 174.762 89.1634Z" fill="white"/>
</svg>
